<svg id="visual" viewBox="0 0 900 600" width="900" height="600" xmlns="http://www.w3.org/2000/svg" xmlns:xlink="http://www.w3.org/1999/xlink" version="1.1"><rect x="0" y="0" width="900" height="600" fill="#FFFFFF"></rect><g transform="translate(465.0978772590123 301.48433898522484)"><path d="M137.2 -233.7C174.5 -216.2 199 -172.6 211.6 -129.3C224.3 -86 225.1 -43 224.3 -0.5C223.4 42 220.8 84 201.9 116.5C183 149 147.7 171.9 111.4 194.2C75 216.6 37.5 238.3 -1.7 241.3C-41 244.3 -82 228.7 -118.1 206.2C-154.2 183.7 -185.3 154.3 -210.3 118.8C-235.3 83.3 -254.2 41.7 -254.7 -0.3C-255.3 -42.3 -237.6 -84.7 -216.8 -127.4C-196 -170.1 -172 -213.2 -135.3 -231.1C-98.7 -248.9 -49.3 -241.4 0.3 -242C50 -242.6 100 -251.2 137.2 -233.7" fill="#f9cd1c"></path></g></svg>